<svg width="80" height="16" viewBox="0 0 80 16" fill="none" xmlns="http://www.w3.org/2000/svg">
<mask id="mask0_1_28" style="mask-type:luminance" maskUnits="userSpaceOnUse" x="0" y="0" width="80" height="16">
<path d="M79.7121 0H0.288086V16H79.7121V0Z" fill="white"/>
</mask>
<g mask="url(#mask0_1_28)">
<path d="M29.4463 0.515625H32.4555L37.5723 9.77144L42.6889 0.515633H45.633V15.7247H43.1779V4.06808L38.6912 12.1397H36.3881L31.9014 4.06808V15.7247H29.4463V0.515625Z" fill="#F6F6F6"/>
<path d="M53.5524 15.9951C52.4152 15.9951 51.4158 15.7434 50.554 15.24C49.6921 14.7367 49.0204 14.0396 48.5388 13.1488C48.0571 12.258 47.8163 11.2368 47.8164 10.0853C47.8164 8.9193 48.0518 7.88726 48.5225 6.98914C48.9933 6.09121 49.6469 5.38867 50.4834 4.88153C51.32 4.37471 52.2814 4.12123 53.3677 4.12109C54.4468 4.12109 55.3756 4.37638 56.1542 4.88694C56.9326 5.39765 57.5319 6.11285 57.9521 7.03257C58.3721 7.95242 58.5821 9.03154 58.5822 10.2699V10.9434H50.2498C50.402 11.8706 50.7768 12.6003 51.3743 13.1324C51.9718 13.6648 52.7268 13.9309 53.6393 13.9309C54.3707 13.9309 55.0008 13.8223 55.5295 13.605C56.0581 13.3877 56.5543 13.0582 57.0179 12.6165L58.3215 14.2134C57.025 15.4013 55.4353 15.9952 53.5524 15.9951ZM55.3449 6.97277C54.8306 6.44777 54.157 6.18523 53.3243 6.18513C52.513 6.18513 51.8341 6.45313 51.2873 6.98913C50.7404 7.52509 50.3946 8.24571 50.2498 9.15099H56.2248C56.1524 8.22393 55.859 7.49785 55.3449 6.97277Z" fill="#F6F6F6"/>
<path d="M61.5595 6.40434H59.2998V4.39454H61.5595V1.07031H63.9277V4.39454H67.3606V6.40434H63.9277V11.4993C63.9277 12.3466 64.0726 12.9513 64.3622 13.3135C64.6518 13.6757 65.1479 13.8568 65.8506 13.8567C66.1618 13.8567 66.4262 13.844 66.6436 13.8186C66.8609 13.7934 67.0999 13.759 67.3606 13.7154V15.7034C67.0631 15.7895 66.76 15.8549 66.4535 15.8991C66.1028 15.9507 65.7487 15.9761 65.3943 15.9751C62.8376 15.9751 61.5594 14.5773 61.5595 11.7818V6.40434Z" fill="#F6F6F6"/>
<path d="M79.7015 15.7234H77.3766V14.1373C76.9638 14.7313 76.4388 15.1894 75.8015 15.5116C75.1641 15.8337 74.4398 15.9949 73.6287 15.9951C72.6293 15.9951 71.7439 15.7397 70.9726 15.2291C70.2012 14.7185 69.5947 14.016 69.1529 13.1216C68.7111 12.2272 68.4902 11.2042 68.4902 10.0527C68.4902 8.89391 68.7148 7.86908 69.1638 6.97818C69.6128 6.08747 70.2338 5.38858 71.0269 4.88153C71.8199 4.37471 72.7307 4.12123 73.759 4.12109C74.534 4.12109 75.2293 4.2714 75.8449 4.572C76.4522 4.86577 76.9781 5.30405 77.3766 5.84842V4.39275H79.7015V15.7234ZM77.3332 8.35794C77.0796 7.71336 76.6795 7.20455 76.1328 6.83152C75.5859 6.45858 74.954 6.27212 74.2371 6.27212C73.223 6.27212 72.4155 6.6125 71.8145 7.29325C71.2133 7.97405 70.9127 8.89385 70.9129 10.0527C70.9129 11.2188 71.2025 12.1422 71.7819 12.8229C72.3612 13.5037 73.147 13.8441 74.1393 13.844C74.8707 13.844 75.5225 13.6557 76.0948 13.2791C76.6668 12.9027 77.0796 12.3957 77.3332 11.7582V8.35794Z" fill="#F6F6F6"/>
<path d="M7.22183 0C7.21409 0 7.20639 2.73828e-05 7.19865 6.73828e-05L7.16699 2.61531C7.17424 2.61523 7.18147 2.61517 7.18873 2.61517C8.9101 2.61517 10.2453 3.9724 13.1474 8.86067L13.3243 9.15826L13.3359 9.17773L14.9604 6.74025L14.9492 6.72142C14.5668 6.09962 14.1995 5.52752 13.8473 5.00512C13.4388 4.39984 13.0481 3.85911 12.6689 3.37634C10.7491 0.931938 9.14319 0 7.22183 0Z" fill="#F6F6F6"/>
<path d="M7.19923 6.73828e-05C5.26855 0.0100002 3.56169 1.25846 2.32918 3.16885C2.32558 3.17445 2.32197 3.18005 2.31836 3.18566L4.58076 4.41705C4.58443 4.41149 4.58812 4.40591 4.59181 4.40037C5.31152 3.31675 6.20717 2.6256 7.16758 2.61531C7.17482 2.61523 7.18206 2.61517 7.18931 2.61517L7.22241 0C7.21467 0 7.20697 2.73828e-05 7.19923 6.73828e-05Z" fill="#F6F6F6"/>
<path d="M2.32919 3.16797C2.32558 3.17356 2.32197 3.17916 2.31837 3.18478C1.50848 4.4455 0.904728 5.99258 0.578444 7.66158C0.577031 7.6688 0.575622 7.67603 0.574219 7.68327L3.11593 8.28298C3.11726 8.27574 3.11859 8.26849 3.11993 8.26124C3.39161 6.79447 3.90885 5.43409 4.58075 4.41617C4.58443 4.4106 4.58811 4.40503 4.5918 4.39948L2.32919 3.16797Z" fill="#F6F6F6"/>
<path d="M3.11978 8.26372L0.578288 7.66406C0.576875 7.67128 0.575466 7.67852 0.574062 7.68575C0.396144 8.60363 0.305628 9.5363 0.303729 10.4713C0.303714 10.4788 0.303709 10.4864 0.303712 10.4939L2.91034 10.7271C2.91013 10.7195 2.90992 10.712 2.90974 10.7044C2.90846 10.6502 2.90781 10.5952 2.90779 10.5395C2.90908 9.78346 2.9787 9.02903 3.11578 8.28547C3.1171 8.27823 3.11844 8.27098 3.11978 8.26372Z" fill="#F6F6F6"/>
<path d="M2.98962 11.5379C2.94286 11.2692 2.91636 10.9973 2.91034 10.7246C2.91013 10.717 2.90992 10.7095 2.90974 10.7019L0.303729 10.4688C0.303714 10.4763 0.303709 10.4839 0.303712 10.4914V10.4929C0.303712 11.0748 0.352237 11.6196 0.446546 12.1229C0.447909 12.1302 0.44925 12.1373 0.450634 12.1446L2.99357 11.5596C2.99222 11.5524 2.99092 11.5451 2.98962 11.5379Z" fill="#F6F6F6"/>
<path d="M3.58323 12.8882C3.29959 12.5786 3.09885 12.132 2.99331 11.5608C2.99197 11.5536 2.99068 11.5463 2.98937 11.5391L0.446289 12.1241C0.447652 12.1314 0.448993 12.1385 0.450377 12.1458C0.642593 13.155 1.01956 13.9961 1.55941 14.6324C1.56421 14.638 1.56903 14.6437 1.57386 14.6493L3.59838 12.9045C3.59332 12.8991 3.58824 12.8936 3.58323 12.8882Z" fill="#F6F6F6"/>
<path d="M11.1175 5.65234C9.58501 8.0029 8.65665 9.47721 8.65665 9.47721C6.61527 12.6772 5.90907 13.3944 4.77252 13.3944C4.29827 13.3944 3.90207 13.2256 3.59854 12.9028C3.59348 12.8974 3.5884 12.8919 3.58339 12.8865L1.55957 14.6306C1.56437 14.6363 1.56919 14.6419 1.57402 14.6476C2.31943 15.5165 3.37159 15.9986 4.67321 15.9986C6.64249 15.9986 8.05881 15.0702 10.5766 10.6689C10.5766 10.6689 11.6262 8.81544 12.3483 7.53869C11.901 6.81655 11.494 6.19138 11.1175 5.65234Z" fill="#F6F6F6"/>
<path d="M13.8489 1.94531C13.8437 1.9508 13.8385 1.9564 13.8333 1.9619C13.4309 2.39067 13.0447 2.86948 12.6689 3.37751C13.0481 3.86028 13.4395 4.40205 13.848 5.00734C14.3295 4.26418 14.779 3.66229 15.2195 3.20097C15.2247 3.1955 15.2298 3.19019 15.235 3.18476L13.8489 1.94531Z" fill="#F6F6F6"/>
<path d="M21.2885 1.71323C20.2198 0.633528 18.9455 0 17.5832 0C16.1467 0 14.9384 0.787183 13.8486 1.94365C13.8434 1.94913 13.8382 1.95474 13.833 1.96024L15.2192 3.19931C15.2244 3.19384 15.2295 3.18852 15.2347 3.18309C15.9527 2.43631 16.6475 2.06345 17.4177 2.06345C18.2467 2.06345 19.0228 2.4537 19.695 3.13786C19.7002 3.14322 19.7054 3.14853 19.7107 3.15393L21.3044 1.72931C21.2991 1.72392 21.2938 1.7186 21.2885 1.71323Z" fill="#F6F6F6"/>
<path d="M24.3785 10.1271C24.3186 6.66036 23.1055 3.56114 21.3048 1.73092C21.2995 1.72553 21.2942 1.72021 21.2889 1.71484L19.6953 3.13946C19.7006 3.14483 19.7058 3.15014 19.7111 3.15554C21.0657 4.54704 21.9949 7.13527 22.0794 10.1263C22.0796 10.1339 22.0798 10.1414 22.08 10.1489L24.3789 10.1497C24.3788 10.1421 24.3786 10.1346 24.3785 10.1271Z" fill="#F6F6F6"/>
<path d="M24.379 10.1483C24.3789 10.1408 24.3788 10.1333 24.3786 10.1257L22.0795 10.125C22.0797 10.1325 22.0799 10.1401 22.0801 10.1476C22.0839 10.288 22.0858 10.4292 22.0857 10.5713C22.0857 11.3868 21.9639 12.046 21.7162 12.522C21.7126 12.529 21.7088 12.5361 21.7051 12.5431L23.4193 14.3259C23.4235 14.3194 23.4277 14.313 23.4319 14.3065C24.0542 13.3462 24.3809 12.0123 24.3809 10.3947C24.3809 10.3124 24.3803 10.2303 24.379 10.1483Z" fill="#F6F6F6"/>
<path d="M21.7157 12.5234C21.712 12.5305 21.7083 12.5376 21.7046 12.5446C21.4902 12.9457 21.1842 13.2133 20.7842 13.3303L21.5657 15.7931C21.6691 15.7579 21.7699 15.7185 21.8679 15.6747C21.8971 15.6617 21.9262 15.6483 21.955 15.6345C21.9716 15.6265 21.9881 15.6185 22.0045 15.6103C22.5212 15.3527 22.9579 14.9729 23.3111 14.4835C23.3327 14.4536 23.354 14.4235 23.375 14.3928C23.3897 14.3712 23.4043 14.3494 23.4187 14.3273C23.423 14.3209 23.4271 14.3144 23.4314 14.3079L21.7157 12.5234Z" fill="#F6F6F6"/>
<path d="M20.2872 13.394C20.0251 13.394 19.7939 13.355 19.5677 13.2539L18.7676 15.7753C19.2173 15.9289 19.697 15.9981 20.232 15.9981C20.7249 15.9981 21.1774 15.9243 21.5876 15.7822L20.8063 13.3203C20.638 13.3707 20.463 13.3956 20.2872 13.394Z" fill="#F6F6F6"/>
<path d="M18.686 12.5328C18.6811 12.5271 18.6761 12.5214 18.6712 12.5156L16.8301 14.4304C16.8352 14.4359 16.8404 14.4414 16.8455 14.4469C17.4853 15.1286 18.0961 15.5515 18.7889 15.7836L19.5884 13.2641C19.2964 13.1387 19.0141 12.9114 18.686 12.5328Z" fill="#F6F6F6"/>
<path d="M18.6717 12.5176C18.1194 11.8753 17.4363 10.8061 16.3617 9.07702L14.9613 6.74148L14.9501 6.72266L13.3252 9.15948L13.3368 9.17895L14.329 10.8482C15.2908 12.4577 16.0744 13.6221 16.8306 14.4323C16.8357 14.4378 16.8409 14.4433 16.846 14.4488L18.6865 12.5347C18.6816 12.529 18.6766 12.5233 18.6717 12.5176Z" fill="#F6F6F6"/>
</g>
</svg>
